<svg width="24" height="23" viewBox="0 0 24 23" fill="none" xmlns="http://www.w3.org/2000/svg">
<path fill-rule="evenodd" clip-rule="evenodd" d="M1 8.56994C1 4.94227 3.88792 2 7.45674 2C9.23387 2 10.8382 2.73158 12.0003 3.91161C13.165 2.73122 14.7753 2 16.5433 2C20.1121 2 23 4.94227 23 8.56994C23 12.4555 21.2203 15.5234 19.0955 17.7281C16.9815 19.9216 14.4799 21.312 12.8858 21.8638C12.6052 21.9634 12.2837 22 12 22C11.7163 22 11.3948 21.9634 11.1142 21.8638C9.52019 21.312 7.01847 19.9216 4.90451 17.7281C2.77977 15.5234 1 12.4555 1 8.56994Z" fill="#06120B" fill-opacity="0.3" stroke="white" stroke-width="1.5" stroke-linecap="round" stroke-linejoin="round"/>
</svg>
