<svg width="350" height="400" viewBox="0 0 350 400" fill="none" xmlns="http://www.w3.org/2000/svg">
<path d="M174.499 0L1.00287 151.378L89.7564 111.779L106.805 129.825L118.84 115.789L140.401 121.805L174.499 78.6967L231.662 129.825L219.126 93.7343L254.728 115.789L266.261 105.764L293.338 129.825L347.994 151.378L174.499 0Z" fill="#0D3148"/>
<path d="M55.1576 68.1704L1.00287 151.378L57.6648 87.218L61.6762 93.7343L68.1948 82.2055H82.235L55.1576 68.1704Z" fill="#0D3148"/>
<path d="M293.84 68.1704L347.994 151.378L293.338 87.218L289.327 93.7343L282.808 82.2055H268.768L293.84 68.1704Z" fill="#0D3148"/>
<path d="M46.6332 166.416H2.00574L46.6332 160.608L87.2493 129.247L119.341 151.703L175 110.276L232.665 151.703L264.255 129.247L306.877 160.608L350 166.416H304.37L264.255 140.475L232.665 164.093L175 124.601L119.341 164.093L87.2493 140.475L46.6332 166.416Z" fill="#0D3148"/>
<path d="M174.499 400L0 298.747L36.6046 299.749L70.702 322.807H108.811L148.926 350.877H194.556L238.682 322.807H275.788L312.894 299.749H348.997L174.499 400Z" fill="#0F4F2F"/>
<path d="M173.161 301.754L191.399 320.551H154.922L173.161 301.754Z" fill="#0F4F2F"/>
<path d="M172.659 314.787L193.069 335.84H152.249L172.659 314.787Z" fill="#0F4F2F"/>
<path d="M173.161 328.822L196.61 352.882H149.711L173.161 328.822Z" fill="#0F4F2F"/>
<path d="M18.7262 259.649L32.9165 274.274H4.53601L18.7262 259.649Z" fill="#0F4F2F"/>
<path d="M18.3361 269.789L34.2156 286.168H2.45657L18.3361 269.789Z" fill="#0F4F2F"/>
<path d="M18.7262 280.709L36.771 299.749L0 298.747L18.7262 280.709Z" fill="#0F4F2F"/>
<path d="M329.614 259.649L343.805 274.274H315.424L329.614 259.649Z" fill="#0F4F2F"/>
<path d="M329.224 269.789L345.104 286.168H313.345L329.224 269.789Z" fill="#0F4F2F"/>
<path d="M329.614 280.709L348.997 299.749H312.393L329.614 280.709Z" fill="#0F4F2F"/>
<path d="M258.62 279.699L274.077 295.629H243.164L258.62 279.699Z" fill="#0F4F2F"/>
<path d="M258.195 290.744L275.492 308.585H240.899L258.195 290.744Z" fill="#0F4F2F"/>
<path d="M258.62 302.638L278.493 323.028H238.748L258.62 302.638Z" fill="#0F4F2F"/>
<path d="M89.136 279.699L104.592 295.629H73.6795L89.136 279.699Z" fill="#0F4F2F"/>
<path d="M88.7111 290.744L106.008 308.585H71.4146L88.7111 290.744Z" fill="#0F4F2F"/>
<path d="M89.136 302.638L109.009 323.028H69.2634L89.136 302.638Z" fill="#0F4F2F"/>
<path d="M1.78561 220.824V188.597L1 183.522H12.3128L39.0236 206.106L42.0874 209.532H42.9516V183.522H53.3217V220.824H43.3444L16.0052 197.859L12.9413 194.878H12.1557V220.824H1.78561Z" fill="#1E1E1E"/>
<path d="M59.6201 220.824L82.6385 183.522H98.115L121.055 220.824H108.956L104.321 212.767H76.1965L71.09 220.824H59.6201ZM79.0246 206.55H101.415L90.6517 189.232H89.8661L79.0246 206.55Z" fill="#1E1E1E"/>
<path d="M133.712 220.824L133.633 189.549H113.207V183.459H164.586V189.549H144.082V220.824H133.712Z" fill="#1E1E1E"/>
<path d="M184.096 221.459C179.33 221.459 176.004 220.422 174.119 218.35C172.233 216.278 171.29 213.529 171.29 210.103V183.522H181.66V210.357C181.66 212.345 182.263 213.677 183.467 214.353C184.672 215.03 186.165 215.369 187.945 215.369H204.6C206.276 215.369 207.743 215.03 209 214.353C210.257 213.634 210.885 212.302 210.885 210.357V183.522H221.255V210.103C221.255 212.387 220.862 214.375 220.077 216.066C219.291 217.758 217.982 219.09 216.149 220.063C214.316 220.993 211.775 221.459 208.528 221.459H184.096Z" fill="#1E1E1E"/>
<path d="M282.818 221.459C280.723 221.459 278.654 221.205 276.611 220.697C274.621 220.148 272.343 218.836 269.776 216.764L264.12 212.197C261.816 210.293 259.275 208.898 256.5 208.01C253.776 207.121 250.346 206.677 246.208 206.677H243.773V220.824H233.403V188.597L232.617 183.459H267.42C270.772 183.459 273.39 183.818 275.276 184.537C277.214 185.256 278.628 186.208 279.518 187.392C280.461 188.534 281.063 189.76 281.325 191.071C281.587 192.382 281.718 193.63 281.718 194.814V196.02C281.718 196.95 281.561 197.986 281.246 199.128C280.932 200.27 280.33 201.391 279.439 202.49C278.549 203.59 277.266 204.52 275.59 205.282C273.966 206.043 271.819 206.487 269.148 206.614C269.829 206.91 270.693 207.375 271.74 208.01C272.788 208.602 273.862 209.257 274.961 209.976C276.114 210.695 277.161 211.351 278.104 211.943C279.047 212.535 279.78 212.958 280.304 213.212C282.189 214.1 283.865 214.713 285.332 215.051C286.798 215.39 288.003 215.58 288.945 215.622C289.888 215.665 290.438 215.686 290.595 215.686L289.024 220.824C288.553 220.951 287.767 221.078 286.667 221.205C285.567 221.374 284.284 221.459 282.818 221.459ZM255.557 200.904C257.547 200.904 259.328 200.883 260.899 200.841C262.47 200.756 263.884 200.672 265.141 200.587C267.446 200.376 269.043 199.868 269.934 199.065C270.876 198.219 271.348 197.14 271.348 195.829V194.37C271.348 193.017 270.902 191.875 270.012 190.944C269.122 190.014 267.524 189.549 265.22 189.549H243.773V200.587C246.077 200.714 248.198 200.799 250.136 200.841C252.074 200.883 253.881 200.904 255.557 200.904Z" fill="#1E1E1E"/>
<path d="M297.675 220.824V183.522H346.54V189.612H308.046V198.367H337.427V204.647H308.046V214.734H346.855L349.997 220.126C349.997 220.296 349.29 220.465 347.876 220.634C346.462 220.761 344.026 220.824 340.57 220.824H297.675Z" fill="#1E1E1E"/>
<path d="M82.5113 268.057V242.614L82 238.557H104.651C106.833 238.557 108.537 238.841 109.764 239.409C111.026 239.976 111.946 240.728 112.526 241.663C113.139 242.564 113.531 243.532 113.702 244.567C113.872 245.602 113.957 246.587 113.957 247.522V250.477C113.957 251.245 113.838 252.113 113.599 253.082C113.361 254.016 112.918 254.935 112.27 255.836C111.622 256.704 110.685 257.439 109.458 258.04C108.23 258.607 106.628 258.891 104.651 258.891H99.4358C97.2883 258.891 95.2771 258.841 93.4023 258.741C91.5616 258.641 90.181 258.557 89.2607 258.491V268.057H82.5113ZM89.2607 254.083H103.168C104.702 254.083 105.759 253.716 106.339 252.981C106.918 252.247 107.208 251.362 107.208 250.327V247.172C107.208 246.103 106.918 245.202 106.339 244.467C105.759 243.733 104.719 243.365 103.22 243.365H89.2607V254.083Z" fill="#1E1E1E"/>
<path d="M128.665 268.557C125.563 268.557 123.399 267.739 122.171 266.103C120.944 264.467 120.331 262.297 120.331 259.592V238.607H127.08V259.793C127.08 261.362 127.472 262.414 128.256 262.948C129.04 263.482 130.012 263.749 131.171 263.749H142.01C143.101 263.749 144.056 263.482 144.874 262.948C145.692 262.38 146.101 261.329 146.101 259.793V238.607H152.85V259.592C152.85 261.395 152.595 262.965 152.083 264.3C151.572 265.636 150.72 266.688 149.527 267.456C148.334 268.19 146.68 268.557 144.567 268.557H128.665Z" fill="#1E1E1E"/>
<path d="M160.245 268.057L160.756 264.05V238.607H167.506V263.249H188.674L190.72 267.506C190.72 267.639 190.259 267.773 189.339 267.906C188.419 268.006 186.834 268.057 184.584 268.057H160.245Z" fill="#1E1E1E"/>
<path d="M201.025 268.057C198.707 268.057 197.003 267.956 195.912 267.756C194.821 267.556 194.276 267.322 194.276 267.055L196.321 262.698C197.105 262.831 199.048 262.965 202.15 263.098C205.286 263.198 209.581 263.249 215.035 263.249H216.006C217.472 263.249 218.512 262.998 219.125 262.497C219.739 261.963 220.046 261.078 220.046 259.843V258.841C220.046 257.673 219.79 256.838 219.279 256.337C218.802 255.836 217.711 255.586 216.006 255.586H204.144C200.701 255.586 198.196 254.968 196.628 253.733C195.06 252.464 194.276 250.41 194.276 247.572V246.771C194.276 245.302 194.548 243.95 195.094 242.714C195.673 241.479 196.645 240.494 198.008 239.759C199.372 238.991 201.246 238.607 203.633 238.607H217.54C219.858 238.607 221.733 238.724 223.165 238.958C224.597 239.192 225.312 239.442 225.312 239.709L224.29 243.916C223.403 243.816 221.392 243.716 218.256 243.616C215.12 243.482 210.91 243.415 205.627 243.415L205.064 243.365C203.496 243.365 202.44 243.683 201.894 244.317C201.349 244.918 201.059 245.686 201.025 246.621V247.472C201.025 248.574 201.332 249.409 201.945 249.976C202.593 250.511 203.65 250.778 205.115 250.778H216.467C218.648 250.778 220.506 250.995 222.04 251.429C223.574 251.863 224.75 252.664 225.568 253.833C226.386 254.968 226.795 256.654 226.795 258.891V259.693C226.795 262.197 226.13 264.217 224.801 265.753C223.506 267.289 221.239 268.057 218.001 268.057H201.025Z" fill="#1E1E1E"/>
<path d="M233.946 268.057V238.607H265.75V243.415H240.696V250.327H259.819V255.285H240.696V263.249H265.955L268 267.506C268 267.639 267.54 267.773 266.619 267.906C265.699 268.006 264.114 268.057 261.864 268.057H233.946Z" fill="#1E1E1E"/>
</svg>
